<?xml version="1.0" encoding="UTF-8"?>
<svg width="300" height="600" viewBox="0 0 300 600" xmlns="http://www.w3.org/2000/svg">
  <!-- Body silhouette with cyberpunk aesthetic -->
  <defs>
    <linearGradient id="bodyGradient" x1="0%" y1="0%" x2="100%" y2="100%">
      <stop offset="0%" stop-color="#49c5b6" stop-opacity="0.1"/>
      <stop offset="100%" stop-color="#ff5252" stop-opacity="0.1"/>
    </linearGradient>
    <filter id="glow" x="-20%" y="-20%" width="140%" height="140%">
      <feGaussianBlur stdDeviation="5" result="blur"/>
      <feComposite in="SourceGraphic" in2="blur" operator="over"/>
    </filter>
  </defs>

  <!-- Background grid pattern -->
  <pattern id="grid" width="20" height="20" patternUnits="userSpaceOnUse">
    <path d="M 20 0 L 0 0 0 20" fill="none" stroke="#49c5b6" stroke-width="0.5" stroke-opacity="0.2"/>
  </pattern>
  <rect width="100%" height="100%" fill="url(#grid)" />

  <!-- Human body silhouette -->
  <g filter="url(#glow)">
    <!-- Head -->
    <ellipse cx="150" cy="70" rx="40" ry="50" fill="url(#bodyGradient)" stroke="#49c5b6" stroke-width="1"/>
    
    <!-- Neck -->
    <rect x="140" y="115" width="20" height="15" fill="url(#bodyGradient)" stroke="#49c5b6" stroke-width="1"/>
    
    <!-- Torso -->
    <path d="M 110 130 
             L 140 130 
             L 140 300 
             L 110 300 
             Z" 
          fill="url(#bodyGradient)" stroke="#49c5b6" stroke-width="1"/>
    
    <path d="M 160 130 
             L 190 130 
             L 190 300 
             L 160 300 
             Z" 
          fill="url(#bodyGradient)" stroke="#49c5b6" stroke-width="1"/>
    
    <!-- Arms -->
    <path d="M 110 130 
             L 90 130 
             L 70 250 
             L 90 250 
             Z" 
          fill="url(#bodyGradient)" stroke="#49c5b6" stroke-width="1"/>
    
    <path d="M 190 130 
             L 210 130 
             L 230 250 
             L 210 250 
             Z" 
          fill="url(#bodyGradient)" stroke="#49c5b6" stroke-width="1"/>
    
    <!-- Legs -->
    <path d="M 110 300 
             L 140 300 
             L 120 500 
             L 90 500 
             Z" 
          fill="url(#bodyGradient)" stroke="#49c5b6" stroke-width="1"/>
    
    <path d="M 160 300 
             L 190 300 
             L 210 500 
             L 180 500 
             Z" 
          fill="url(#bodyGradient)" stroke="#49c5b6" stroke-width="1"/>
  </g>
  
  <!-- Cybernetic highlights and connection points -->
  <g>
    <!-- Head connection points -->
    <circle cx="150" cy="50" r="3" fill="#49c5b6" stroke="white" stroke-width="0.5" opacity="0.8"/>
    <circle cx="125" cy="65" r="2" fill="#ECD06F" stroke="white" stroke-width="0.5" opacity="0.8"/>
    <circle cx="175" cy="65" r="2" fill="#ECD06F" stroke="white" stroke-width="0.5" opacity="0.8"/>
    
    <!-- Chest/Torso connection points -->
    <circle cx="150" cy="150" r="5" fill="#ff5252" stroke="white" stroke-width="0.5" opacity="0.8"/>
    <circle cx="130" cy="200" r="3" fill="#49c5b6" stroke="white" stroke-width="0.5" opacity="0.8"/>
    <circle cx="170" cy="200" r="3" fill="#49c5b6" stroke="white" stroke-width="0.5" opacity="0.8"/>
    
    <!-- Arm connection points -->
    <circle cx="85" cy="180" r="3" fill="#3498db" stroke="white" stroke-width="0.5" opacity="0.8"/>
    <circle cx="215" cy="180" r="3" fill="#3498db" stroke="white" stroke-width="0.5" opacity="0.8"/>
    
    <!-- Leg connection points -->
    <circle cx="115" cy="350" r="3" fill="#8e44ad" stroke="white" stroke-width="0.5" opacity="0.8"/>
    <circle cx="185" cy="350" r="3" fill="#8e44ad" stroke="white" stroke-width="0.5" opacity="0.8"/>
    <circle cx="110" cy="450" r="2" fill="#f39c12" stroke="white" stroke-width="0.5" opacity="0.8"/>
    <circle cx="190" cy="450" r="2" fill="#f39c12" stroke="white" stroke-width="0.5" opacity="0.8"/>
    
    <!-- Connection lines -->
    <line x1="130" y1="200" x2="85" y2="180" stroke="#49c5b6" stroke-width="1" opacity="0.5"/>
    <line x1="170" y1="200" x2="215" y2="180" stroke="#49c5b6" stroke-width="1" opacity="0.5"/>
    <line x1="150" y1="150" x2="150" y2="50" stroke="#ff5252" stroke-width="1" opacity="0.5"/>
    <line x1="150" y1="150" x2="130" y2="200" stroke="#49c5b6" stroke-width="1" opacity="0.5"/>
    <line x1="150" y1="150" x2="170" y2="200" stroke="#49c5b6" stroke-width="1" opacity="0.5"/>
    <line x1="130" y1="200" x2="115" y2="350" stroke="#8e44ad" stroke-width="1" opacity="0.5"/>
    <line x1="170" y1="200" x2="185" y2="350" stroke="#8e44ad" stroke-width="1" opacity="0.5"/>
  </g>
  
  <!-- Decorative circuit patterns -->
  <g stroke="#49c5b6" stroke-width="0.7" fill="none" opacity="0.3">
    <path d="M 50,50 L 70,30 L 110,30 L 120,20 L 150,20" />
    <path d="M 250,50 L 230,30 L 190,30 L 180,20 L 150,20" />
    <path d="M 30,200 L 50,180 L 70,190 L 85,180" />
    <path d="M 270,200 L 250,180 L 230,190 L 215,180" />
    <path d="M 30,400 L 50,380 L 70,390 L 90,370 L 110,380" />
    <path d="M 270,400 L 250,380 L 230,390 L 210,370 L 190,380" />
  </g>
  
  <!-- Data flow animations (looks static in SVG, but can be animated with CSS) -->
  <g stroke="#ECD06F" stroke-width="1" opacity="0.8">
    <line x1="150" y1="20" x2="150" y2="50" stroke-dasharray="5,5" />
    <line x1="85" y1="180" x2="70" y2="190" stroke-dasharray="2,3" />
    <line x1="215" y1="180" x2="230" y2="190" stroke-dasharray="2,3" />
    <line x1="110" y1="380" x2="115" y2="350" stroke-dasharray="3,4" />
    <line x1="190" y1="380" x2="185" y2="350" stroke-dasharray="3,4" />
  </g>
</svg>