<?xml version="1.0" encoding="UTF-8"?>
<svg width="500" height="500" viewBox="0 0 500 500" xmlns="http://www.w3.org/2000/svg">
  <defs>
    <pattern id="smallGrid" width="10" height="10" patternUnits="userSpaceOnUse">
      <path d="M 10 0 L 0 0 0 10" fill="none" stroke="#49c5b6" stroke-width="0.5" stroke-opacity="0.1"/>
    </pattern>
    <pattern id="grid" width="100" height="100" patternUnits="userSpaceOnUse">
      <rect width="100" height="100" fill="url(#smallGrid)"/>
      <path d="M 100 0 L 0 0 0 100" fill="none" stroke="#49c5b6" stroke-width="1" stroke-opacity="0.2"/>
    </pattern>
    <radialGradient id="centerGlow" cx="50%" cy="50%" r="50%" fx="50%" fy="50%">
      <stop offset="0%" stop-color="#49c5b6" stop-opacity="0.05"/>
      <stop offset="100%" stop-color="#000000" stop-opacity="0"/>
    </radialGradient>
  </defs>
  
  <!-- Background grid -->
  <rect width="100%" height="100%" fill="url(#grid)" />
  
  <!-- Center glow effect -->
  <rect width="100%" height="100%" fill="url(#centerGlow)" />
  
  <!-- Cyberpunk-inspired circuit patterns -->
  <g stroke="#49c5b6" stroke-width="1" stroke-opacity="0.3" fill="none">
    <path d="M 50,50 L 100,50 L 150,100 L 200,100 L 250,150" />
    <path d="M 450,50 L 400,50 L 350,100 L 300,100 L 250,150" />
    <path d="M 50,450 L 100,450 L 150,400 L 200,400 L 250,350" />
    <path d="M 450,450 L 400,450 L 350,400 L 300,400 L 250,350" />
    
    <!-- Digital data streams -->
    <path d="M 250,150 L 250,350" stroke-dasharray="10,5" />
    <circle cx="250" cy="150" r="5" fill="#49c5b6" fill-opacity="0.3" />
    <circle cx="250" cy="250" r="8" fill="#49c5b6" fill-opacity="0.2" />
    <circle cx="250" cy="350" r="5" fill="#49c5b6" fill-opacity="0.3" />
  </g>
  
  <!-- Decorative angular shapes -->
  <path d="M 200,200 L 250,180 L 300,200 L 320,250 L 300,300 L 250,320 L 200,300 L 180,250 Z" 
        fill="none" stroke="#ECD06F" stroke-width="1" stroke-opacity="0.2" />
</svg>