<svg width="400" height="400" viewBox="0 0 400 400" xmlns="http://www.w3.org/2000/svg" style="background-color: #0d0d0d;">
  <defs>
    <!-- Neon Glow Filter -->
    <filter id="neon-glow" x="-50%" y="-50%" width="200%" height="200%">
      <feGaussianBlur stdDeviation="4" result="coloredBlur"/>
      <feMerge>
        <feMergeNode in="coloredBlur"/>
        <feMergeNode in="SourceGraphic"/>
      </feMerge>
    </filter>
    
    <!-- Subtle Glow Filter -->
    <filter id="subtle-glow" x="-50%" y="-50%" width="200%" height="200%">
      <feGaussianBlur stdDeviation="2" result="coloredBlur"/>
      <feMerge>
        <feMergeNode in="coloredBlur"/>
        <feMergeNode in="SourceGraphic"/>
      </feMerge>
    </filter>

    <!-- Circuit Pattern -->
    <pattern id="circuit-pattern" patternUnits="userSpaceOnUse" width="20" height="20" patternTransform="rotate(45)">
      <path d="M0 10 L10 10 L10 0 M10 20 L10 10 L20 10" stroke="#2a2a2a" stroke-width="0.5" fill="none"/>
    </pattern>

    <!-- Data Stream Gradient -->
    <linearGradient id="data-stream-grad" x1="0%" y1="0%" x2="100%" y2="0%">
      <stop offset="0%" style="stop-color:#ff5252; stop-opacity:0"/>
      <stop offset="50%" style="stop-color:#ff5252; stop-opacity:1"/>
      <stop offset="100%" style="stop-color:#ff5252; stop-opacity:0"/>
    </linearGradient>
    
    <!-- Font -->
    <style>
      @import url('https://fonts.googleapis.com/css2?family=Orbitron:wght@400;700&amp;display=swap');
      .title-text {
        font-family: 'Orbitron', sans-serif;
        font-size: 38px;
        font-weight: 700;
        fill: #49c5b6; /* Teal/Green */
        text-anchor: middle;
        filter: url(#neon-glow);
      }
      .title-text-base { /* Base layer for sharper text */
        font-family: 'Orbitron', sans-serif;
        font-size: 38px;
        font-weight: 700;
        fill: #ffffff; 
        text-anchor: middle;
      }
    </style>
  </defs>

  <!-- Background Pattern -->
  <rect width="400" height="400" fill="url(#circuit-pattern)" opacity="0.3"/>

  <!-- Central Core (Fragmented Hexagon + Eye/Transparency) -->
  <g transform="translate(200, 180)">
    <!-- Fragmented Hexagon Base -->
    <polygon points="0,-60 52,-30 52,30 0,60 -52,30 -52,-30" fill="none" stroke="#8a2be2" stroke-width="2" filter="url(#neon-glow)" opacity="0.8"/>
    <!-- Inner Circuitry/Neural Pattern -->
    <path d="M0,0 C -20,-20 20,-20 0,0 C -30,10 -10,30 0,0 C 20,20 -20,20 0,0 C 10,-30 30,-10 0,0" stroke="#49c5b6" stroke-width="0.7" fill="none" opacity="0.6"/>
    <circle cx="0" cy="0" r="15" fill="none" stroke="#ff5252" stroke-width="1" filter="url(#subtle-glow)"/>
    
    <!-- Transparency/Eye Symbol (Semi-transparent overlay) -->
    <path d="M -40,0 Q 0,-30 40,0 Q 0,30 -40,0 Z" fill="#49c5b6" opacity="0.15" filter="url(#subtle-glow)"/>
    <path d="M -30,0 Q 0,-20 30,0 Q 0,20 -30,0 Z" fill="none" stroke="#49c5b6" stroke-width="1" opacity="0.5"/>
    
    <!-- Glitch effect on a fragment -->
    <line x1="52" y1="-30" x2="52" y2="30" stroke="#8a2be2" stroke-width="2.5" filter="url(#neon-glow)" opacity="0.8">
       <animate attributeName="stroke" values="#8a2be2;#ff5252;#8a2be2" dur="0.1s" begin="2s;8s" repeatCount="1"/>
       <animateTransform attributeName="transform" type="translate" values="0 0; 2 -1; 0 0" dur="0.1s" begin="2s;8s" repeatCount="1"/>
    </line>
  </g>

  <!-- Connecting Lines and Outer Nodes (Decentralization/Graph) -->
  <g id="network">
    <!-- Nodes -->
    <circle cx="80" cy="80" r="10" fill="#ff5252" filter="url(#subtle-glow)"/>
    <rect x="310" y="120" width="18" height="18" fill="#49c5b6" transform="rotate(45 319 129)" filter="url(#subtle-glow)"/>
    <circle cx="100" cy="280" r="12" fill="#8a2be2" filter="url(#subtle-glow)"/>
    <polygon points="300,250 320,250 310,270" fill="#49c5b6" filter="url(#subtle-glow)"/>
    <circle cx="200" cy="50" r="8" fill="#ff5252" filter="url(#subtle-glow)"/>
    <circle cx="350" cy="320" r="10" fill="#8a2be2" filter="url(#subtle-glow)"/>
    <rect x="50" y="180" width="15" height="15" fill="#49c5b6" filter="url(#subtle-glow)"/>

    <!-- Connections (Data Flow) -->
    <path d="M 200,180 Q 140,130 80,80" stroke="#49c5b6" stroke-width="1.5" fill="none" opacity="0.7" filter="url(#subtle-glow)" stroke-dasharray="5 3">
       <animate attributeName="stroke-dashoffset" values="0;16" dur="1s" repeatCount="indefinite"/>
    </path>
     <path d="M 200,180 C 280,160 300,140 319,129" stroke="#8a2be2" stroke-width="1" fill="none" opacity="0.7" filter="url(#subtle-glow)"/>
     <path d="M 200,180 Q 150,230 100,280" stroke="#ff5252" stroke-width="1.5" fill="none" opacity="0.7" filter="url(#subtle-glow)"/>
     <path d="M 200,180 C 250,220 280,240 310,260" stroke="#49c5b6" stroke-width="1" fill="none" opacity="0.7" filter="url(#subtle-glow)" stroke-dasharray="3 3"/>
     <path d="M 200,180 C 200,115 200,80 200,50" stroke="#ff5252" stroke-width="1" fill="none" opacity="0.7" filter="url(#subtle-glow)"/>
     <path d="M 100,280 C 200,300 300,310 350,320" stroke="#8a2be2" stroke-width="1" fill="none" opacity="0.7" filter="url(#subtle-glow)"/>
     <path d="M 80,80 C 65,130 55,170 57,187" stroke="#49c5b6" stroke-width="1" fill="none" opacity="0.7" filter="url(#subtle-glow)"/>
     
     <!-- Data Packet Animation Example -->
     <circle cx="0" cy="0" r="3" fill="#ECD06F">
        <animateMotion dur="4s" repeatCount="indefinite" path="M 200,180 Q 140,130 80,80" rotate="auto" />
     </circle>
  </g>

  <!-- Title -->
  <text x="200" y="365" class="title-text-base">POLIGRAPH</text> 
  <text x="200" y="365" class="title-text">POLIGRAPH</text> 
  
</svg>